<svg xmlns="http://www.w3.org/2000/svg" xmlns:xlink="http://www.w3.org/1999/xlink" width="222" height="37" viewBox="0 0 222 37">
  <defs>
    <filter id="타원_54" x="0" y="0" width="37" height="37" filterUnits="userSpaceOnUse">
      <feOffset dy="3" input="SourceAlpha"/>
      <feGaussianBlur stdDeviation="3" result="blur"/>
      <feFlood flood-opacity="0.161"/>
      <feComposite operator="in" in2="blur"/>
      <feComposite in="SourceGraphic"/>
    </filter>
    <filter id="타원_55" x="37" y="0" width="37" height="37" filterUnits="userSpaceOnUse">
      <feOffset dy="3" input="SourceAlpha"/>
      <feGaussianBlur stdDeviation="3" result="blur-2"/>
      <feFlood flood-opacity="0.161"/>
      <feComposite operator="in" in2="blur-2"/>
      <feComposite in="SourceGraphic"/>
    </filter>
    <filter id="타원_56" x="74" y="0" width="37" height="37" filterUnits="userSpaceOnUse">
      <feOffset dy="3" input="SourceAlpha"/>
      <feGaussianBlur stdDeviation="3" result="blur-3"/>
      <feFlood flood-opacity="0.161"/>
      <feComposite operator="in" in2="blur-3"/>
      <feComposite in="SourceGraphic"/>
    </filter>
    <filter id="타원_57" x="111" y="0" width="37" height="37" filterUnits="userSpaceOnUse">
      <feOffset dy="3" input="SourceAlpha"/>
      <feGaussianBlur stdDeviation="3" result="blur-4"/>
      <feFlood flood-opacity="0.161"/>
      <feComposite operator="in" in2="blur-4"/>
      <feComposite in="SourceGraphic"/>
    </filter>
    <filter id="타원_58" x="148" y="0" width="37" height="37" filterUnits="userSpaceOnUse">
      <feOffset dy="3" input="SourceAlpha"/>
      <feGaussianBlur stdDeviation="3" result="blur-5"/>
      <feFlood flood-opacity="0.161"/>
      <feComposite operator="in" in2="blur-5"/>
      <feComposite in="SourceGraphic"/>
    </filter>
    <filter id="타원_59" x="185" y="0" width="37" height="37" filterUnits="userSpaceOnUse">
      <feOffset dy="3" input="SourceAlpha"/>
      <feGaussianBlur stdDeviation="3" result="blur-6"/>
      <feFlood flood-opacity="0.161"/>
      <feComposite operator="in" in2="blur-6"/>
      <feComposite in="SourceGraphic"/>
    </filter>
  </defs>
  <g id="progress_dots" transform="translate(-261 -1384)">
    <g transform="matrix(1, 0, 0, 1, 261, 1384)" filter="url(#타원_54)">
      <g id="타원_54-2" data-name="타원 54" transform="translate(9 6)" fill="#ededed" stroke="#fff" stroke-width="1">
        <circle cx="9.5" cy="9.5" r="9.5" stroke="none"/>
        <circle cx="9.5" cy="9.5" r="9" fill="none"/>
      </g>
    </g>
    <g transform="matrix(1, 0, 0, 1, 261, 1384)" filter="url(#타원_55)">
      <g id="타원_55-2" data-name="타원 55" transform="translate(46 6)" fill="#ededed" stroke="#fff" stroke-width="1">
        <circle cx="9.5" cy="9.5" r="9.5" stroke="none"/>
        <circle cx="9.5" cy="9.5" r="9" fill="none"/>
      </g>
    </g>
    <g transform="matrix(1, 0, 0, 1, 261, 1384)" filter="url(#타원_56)">
      <g id="타원_56-2" data-name="타원 56" transform="translate(83 6)" fill="#ededed" stroke="#fff" stroke-width="1">
        <circle cx="9.5" cy="9.5" r="9.5" stroke="none"/>
        <circle cx="9.5" cy="9.5" r="9" fill="none"/>
      </g>
    </g>
    <g transform="matrix(1, 0, 0, 1, 261, 1384)" filter="url(#타원_57)">
      <g id="타원_57-2" data-name="타원 57" transform="translate(120 6)" fill="#ededed" stroke="#fff" stroke-width="1">
        <circle cx="9.5" cy="9.5" r="9.5" stroke="none"/>
        <circle cx="9.5" cy="9.5" r="9" fill="none"/>
      </g>
    </g>
    <g transform="matrix(1, 0, 0, 1, 261, 1384)" filter="url(#타원_58)">
      <g id="타원_58-2" data-name="타원 58" transform="translate(157 6)" fill="#ff6f00" stroke="#fff" stroke-width="1">
        <circle cx="9.5" cy="9.5" r="9.5" stroke="none"/>
        <circle cx="9.5" cy="9.5" r="9" fill="none"/>
      </g>
    </g>
    <g transform="matrix(1, 0, 0, 1, 261, 1384)" filter="url(#타원_59)">
      <g id="타원_59-2" data-name="타원 59" transform="translate(194 6)" fill="#ededed" stroke="#fff" stroke-width="1">
        <circle cx="9.5" cy="9.5" r="9.5" stroke="none"/>
        <circle cx="9.5" cy="9.5" r="9" fill="none"/>
      </g>
    </g>
  </g>
</svg>
