<svg xmlns="http://www.w3.org/2000/svg" width="40" height="40" viewBox="0 0 40 40">
  <g id="그룹_18490" data-name="그룹 18490" transform="translate(-4440.001 -3003)">
    <path id="패스_7690" data-name="패스 7690" d="M339.667-156.1a6,6,0,0,0,6-6,6,6,0,0,0-6-6,6,6,0,0,0-6,6A6,6,0,0,0,339.667-156.1Zm0,3c-4,0-12,2.01-12,6v3h24v-3C351.667-151.092,343.672-153.1,339.667-153.1Z" transform="translate(4120.334 3179.102)" fill="#ff6f00"/>
    <path id="패스_7692" data-name="패스 7692" d="M319.667-176.1h40v40h-40Z" transform="translate(4120.334 3179.102)" fill="none" opacity="0.5"/>
  </g>
</svg>
